<?xml version="1.0" standalone="no"?>
<!DOCTYPE svg PUBLIC "-//W3C//DTD SVG 20010904//EN"
 "http://www.w3.org/TR/2001/REC-SVG-20010904/DTD/svg10.dtd">
<svg version="1.0" xmlns="http://www.w3.org/2000/svg"
 width="260.000000pt" height="260.000000pt" viewBox="0 0 260.000000 260.000000"
 preserveAspectRatio="xMidYMid meet">
<metadata>
Created by potrace 1.11, written by Peter Selinger 2001-2013
</metadata>
<g transform="translate(0.000000,260.000000) scale(0.100000,-0.100000)"
fill="#000000" stroke="none">
<path d="M1115 2539 c-22 -4 -53 -9 -70 -12 -173 -29 -395 -126 -539 -234 -98
-73 -238 -222 -303 -321 -96 -146 -169 -331 -191 -487 -9 -64 -8 -339 2 -385
30 -146 71 -263 132 -377 114 -215 328 -421 559 -536 66 -33 223 -90 282 -102
248 -53 522 -40 747 36 90 30 250 109 306 151 l29 21 69 -65 c117 -110 238
-165 385 -175 l77 -5 -1 693 c-1 632 -3 702 -19 782 -21 102 -49 196 -63 215
-5 6 -7 12 -3 12 14 0 -100 203 -159 281 -206 275 -504 450 -868 509 -74 12
-307 11 -372 -1z m342 -634 c191 -44 356 -179 437 -358 40 -87 56 -170 51
-272 -12 -295 -229 -532 -540 -590 -37 -7 -170 -7 -210 0 -117 21 -254 86
-337 161 -189 169 -255 435 -166 671 37 101 143 233 237 296 39 27 145 75 193
88 104 28 224 30 335 4z"/>
</g>
</svg>
